# xmcd
# 
# Track frame offsets:
#     150
#     21192
#     87097
#     171842
#     197642
#     260192
# 
# Disc length: 4257
# 
# Revision: 6
# Processed by: cddbd v1.5.2PL0 Copyright (c) Steve Scherf et al.
# Submitted via: BonkEnc v1.0.15
# 
DISCID=4b109f06
DTITLE=SBB - SBB (Remastered)
DYEAR=1974
DGENRE=Blues
TTITLE0=I need you baby
TTITLE1=Odlot
TTITLE2=Wizje
TTITLE3=Zosta³o we mnie
TTITLE4=Obraz po bitwie
TTITLE5=Figo-fago
EXTD=Live. Recorded in concerts in STODOLA in Warsaw, Poland, 18-19 apr 1974.\nJozef Skrzek (bg, p, hca, synth]\nAntymos Apostolis (g]\nJerzy Piotrowski (dr)
EXTT0=
EXTT1=
EXTT2=
EXTT3=
EXTT4=
EXTT5=
PLAYORDER=
